<?xml version="1.0" standalone="no"?>
<!DOCTYPE svg PUBLIC "-//W3C//DTD SVG 20010904//EN"
 "http://www.w3.org/TR/2001/REC-SVG-20010904/DTD/svg10.dtd">
<svg version="1.0" xmlns="http://www.w3.org/2000/svg"
 width="307.000000pt" height="351.000000pt" viewBox="0 0 307.000000 351.000000"
 preserveAspectRatio="xMidYMid meet">
<metadata>
Created by potrace 1.16, written by Peter Selinger 2001-2019
</metadata>
<g transform="translate(0.000000,351.000000) scale(0.100000,-0.100000)"
fill="#000000" stroke="none">
<path d="M1324 3495 c-342 -49 -641 -201 -886 -450 -400 -407 -536 -987 -361
-1543 30 -96 112 -265 130 -270 27 -8 23 28 -13 104 -57 122 -111 300 -130
425 -23 161 -15 394 19 539 69 293 197 522 412 735 180 179 406 310 645 374
105 28 245 51 313 51 l57 0 0 -269 0 -269 -27 -20 c-23 -17 -28 -30 -33 -77
l-5 -56 -90 -30 c-82 -28 -170 -73 -200 -103 -28 -27 -45 -78 -45 -131 l0 -55
420 0 420 0 0 63 c0 109 -66 169 -248 227 l-87 28 -5 49 c-6 53 -14 71 -42 91
-17 12 -18 34 -18 283 l0 269 58 0 c68 0 207 -23 312 -51 252 -68 466 -194
660 -389 208 -207 325 -420 402 -729 19 -74 22 -116 22 -301 1 -190 -2 -227
-22 -320 -26 -113 -77 -260 -124 -354 -30 -59 -31 -86 -3 -86 34 0 145 282
182 465 27 135 24 453 -5 588 -93 423 -331 763 -698 999 -130 83 -337 164
-512 199 -132 26 -367 33 -498 14z m365 -799 c146 -51 205 -96 213 -160 2 -20
2 -39 -1 -41 -2 -3 -170 -5 -373 -5 l-368 0 0 41 c0 33 6 47 32 71 48 45 152
91 273 122 40 10 158 -5 224 -28z"/>
<path d="M740 2202 c-117 -132 -131 -290 -42 -464 2 -5 -19 -8 -47 -8 -34 0
-53 -5 -57 -13 -3 -8 4 -67 16 -133 11 -65 23 -134 26 -151 l5 -33 -126 0
c-149 0 -142 7 -135 -137 l5 -98 73 -3 c39 -2 72 -6 72 -9 0 -3 -20 -77 -45
-164 -59 -207 -59 -201 12 -197 l57 3 48 165 c26 91 47 173 47 183 1 16 13 17
142 15 l142 -3 48 -173 c26 -94 51 -177 54 -182 10 -16 105 -12 111 4 3 7 -15
86 -40 174 -25 88 -46 165 -46 171 0 7 24 11 59 11 94 0 91 -4 91 126 l0 114
-135 0 c-122 0 -135 2 -135 18 0 9 11 78 24 152 17 95 21 139 14 148 -6 6 -30
12 -54 12 -24 0 -44 2 -44 5 0 3 9 23 19 44 26 50 45 162 37 219 -11 79 -87
216 -135 241 -17 9 -26 4 -61 -37z m73 -42 c9 -11 29 -43 44 -72 24 -46 28
-65 28 -138 0 -92 -20 -164 -55 -195 -20 -18 -20 -16 -20 163 0 175 -1 182
-20 182 -19 0 -20 -7 -22 -147 -2 -198 -2 -196 -15 -200 -22 -8 -55 89 -61
178 -5 93 11 146 64 216 29 39 34 40 57 13z m117 -497 c0 -10 -9 -70 -20 -133
-11 -63 -20 -118 -20 -122 0 -5 -45 -8 -100 -8 -115 0 -100 -18 -125 145 -9
55 -19 108 -21 118 -5 16 6 17 140 17 132 0 146 -2 146 -17z m239 -383 l-2
-70 -374 0 -373 0 0 70 0 70 376 0 375 0 -2 -70z"/>
<path d="M511 1301 c-8 -5 -11 -16 -8 -25 6 -14 39 -16 291 -16 287 0 312 3
286 35 -10 13 -58 15 -284 15 -149 0 -277 -4 -285 -9z"/>
<path d="M1913 2110 c-65 -33 -111 -80 -140 -147 -14 -31 -18 -81 -23 -268 -3
-140 -8 -217 -13 -196 -10 46 -48 95 -90 115 -29 13 -72 16 -251 16 -209 0
-216 -1 -216 -20 0 -27 26 -32 164 -28 l118 3 -6 -52 c-9 -73 -13 -80 -62
-104 -67 -32 -97 -78 -102 -154 -5 -70 10 -107 59 -155 l31 -29 -21 -125 c-27
-157 -27 -176 -2 -176 22 0 25 9 50 173 9 61 20 111 24 110 4 -2 80 -3 170 -3
l162 0 19 -121 c23 -155 25 -159 47 -159 14 0 19 7 19 28 0 25 -23 175 -35
230 l-5 22 165 0 c91 0 165 -3 165 -7 0 -5 -9 -61 -21 -126 -21 -121 -20 -147
5 -147 18 0 20 8 41 135 9 55 18 110 21 121 4 20 11 22 107 26 87 3 111 7 160
32 32 15 60 26 61 25 2 -2 16 -76 30 -163 15 -88 29 -163 32 -168 8 -12 31
-10 37 5 2 7 -9 93 -25 192 -24 138 -28 182 -19 194 6 9 24 41 39 71 l27 55 0
305 c0 290 -1 307 -21 351 -26 55 -79 111 -137 141 -40 22 -56 23 -272 26
l-230 3 -62 -31z m532 -35 c55 -22 93 -61 121 -120 23 -49 24 -56 24 -331 0
-231 -3 -289 -16 -327 -9 -26 -19 -47 -23 -47 -4 0 -15 49 -24 108 -23 144
-33 175 -64 213 -46 54 -70 59 -303 59 -184 0 -211 -2 -217 -16 -10 -28 19
-34 152 -33 121 1 130 0 128 -17 -4 -30 -63 -386 -69 -416 l-6 -28 -350 0
c-302 0 -355 2 -384 16 -97 46 -108 172 -22 238 l35 26 335 0 c264 0 338 3
353 13 39 29 7 37 -156 37 l-159 0 0 225 c0 247 6 279 63 342 63 69 134 83
387 78 117 -2 166 -7 195 -20z m-800 -517 c25 -20 55 -73 55 -98 0 -6 -40 -10
-106 -10 l-106 0 6 28 c3 15 8 44 12 65 l6 37 53 0 c39 0 60 -6 80 -22z m771
-10 c34 -32 35 -37 63 -196 l28 -162 -28 -20 c-48 -35 -108 -50 -195 -50 -46
0 -84 3 -84 8 0 4 17 107 37 230 l37 222 53 0 c46 0 58 -4 89 -32z"/>
<path d="M711 734 c-13 -17 -21 -41 -21 -66 0 -42 21 -69 100 -129 45 -33 37
-59 -18 -59 -23 0 -45 6 -52 15 -15 18 -43 20 -38 3 12 -36 106 -50 146 -22
40 27 24 55 -65 117 -41 28 -57 64 -44 100 28 73 94 46 94 -37 0 -34 4 -46 15
-46 21 0 10 84 -15 119 -29 38 -74 40 -102 5z"/>
<path d="M1588 718 c0 -24 -2 -47 -3 -53 -2 -5 -3 -13 -4 -17 0 -4 -12 -3 -26
2 -31 12 -50 -6 -65 -58 -21 -77 -7 -122 38 -122 16 0 33 5 40 12 9 9 13 7 18
-5 3 -9 9 -17 13 -17 11 0 12 288 1 295 -6 4 -11 -11 -12 -37z"/>
<path d="M1212 644 c-49 -34 -54 -155 -7 -176 34 -15 74 -2 85 28 33 85 -22
188 -78 148z"/>
<path d="M2182 644 c-41 -28 -54 -131 -21 -170 12 -15 57 -19 75 -6 35 23 46
111 18 150 -24 34 -48 43 -72 26z"/>
<path d="M420 185 l0 -185 45 0 45 0 0 65 0 64 83 3 82 3 3 38 3 37 -85 0 -86
0 0 40 0 40 90 0 90 0 0 40 0 40 -135 0 -135 0 0 -185z"/>
<path d="M840 185 l0 -185 45 0 45 0 0 50 0 50 38 0 c34 0 39 -4 65 -50 28
-49 29 -50 78 -50 27 0 49 3 49 8 -1 4 -16 29 -35 57 -33 48 -34 50 -16 70 30
32 41 61 41 104 0 98 -53 131 -208 131 l-102 0 0 -185z"/>
<path d="M1320 185 l0 -185 45 0 44 0 3 107 3 107 80 -107 80 -108 40 3 40 3
0 180 0 180 -42 3 -43 3 0 -112 0 -111 -85 111 c-84 108 -87 111 -125 111
l-40 0 0 -185z"/>
<path d="M1800 330 l0 -40 55 0 55 0 0 -145 0 -145 45 0 44 0 3 143 3 142 53
3 52 3 0 40 0 39 -155 0 -155 0 0 -40z"/>
<path d="M2259 366 c-2 -2 -3 -86 -1 -185 l3 -181 44 0 45 0 0 50 0 50 38 0
c36 0 40 -3 57 -40 24 -54 36 -62 88 -58 l46 3 -36 58 c-36 57 -36 58 -16 72
31 21 46 69 40 122 -6 55 -35 86 -95 102 -35 10 -204 15 -213 7z"/>
</g>
</svg>
